<svg xmlns="http://www.w3.org/2000/svg" viewBox="0 0 2500 320">
    <path fill="#7000f8" fill-opacity="1" d="M0,160L21.8,149.3C43.6,139,87,117,131,144C174.5,171,218,245,262,229.3C305.5,213,349,107,393,90.7C436.4,75,480,149,524,154.7C567.3,160,611,96,655,85.3C698.2,75,742,117,785,133.3C829.1,149,873,139,916,133.3C960,128,1004,128,1047,138.7C1090.9,149,1135,171,1178,192C1221.8,213,1265,235,1309,218.7C1352.7,203,1396,149,1418,122.7L1440,96L1440,0L1418.2,0C1396.4,0,1353,0,1309,0C1265.5,0,1222,0,1178,0C1134.5,0,1091,0,1047,0C1003.6,0,960,0,916,0C872.7,0,829,0,785,0C741.8,0,698,0,655,0C610.9,0,567,0,524,0C480,0,436,0,393,0C349.1,0,305,0,262,0C218.2,0,175,0,131,0C87.3,0,44,0,22,0L0,0Z"></path>
</svg>